<mxfile host="app.diagrams.net" modified="2024-03-18T19:08:59.100Z" agent="Mozilla/5.0 (Windows NT 10.0; Win64; x64) AppleWebKit/537.36 (KHTML, like Gecko) Chrome/122.0.0.0 Safari/537.36" etag="CLLX1rAtERfinCF7TIQd" version="24.0.7" type="device">
  <diagram name="Page-1" id="hfTxe8IZ0LpY-cdfA1d0">
    <mxGraphModel dx="1050" dy="522" grid="1" gridSize="10" guides="1" tooltips="1" connect="1" arrows="1" fold="1" page="1" pageScale="1" pageWidth="827" pageHeight="1169" math="0" shadow="0">
      <root>
        <mxCell id="0" />
        <mxCell id="1" parent="0" />
        <mxCell id="2LJSYE-qC05VJJCvGrUG-1" value="Login" style="rounded=1;whiteSpace=wrap;html=1;" parent="1" vertex="1">
          <mxGeometry x="380" y="140" width="120" height="60" as="geometry" />
        </mxCell>
        <mxCell id="2LJSYE-qC05VJJCvGrUG-2" value="" style="ellipse;html=1;shape=startState;fillColor=#000000;strokeColor=#ff0000;" parent="1" vertex="1">
          <mxGeometry x="425" y="50" width="30" height="30" as="geometry" />
        </mxCell>
        <mxCell id="2LJSYE-qC05VJJCvGrUG-3" value="" style="edgeStyle=orthogonalEdgeStyle;html=1;verticalAlign=bottom;endArrow=open;endSize=8;strokeColor=#ff0000;rounded=0;" parent="1" source="2LJSYE-qC05VJJCvGrUG-2" edge="1">
          <mxGeometry relative="1" as="geometry">
            <mxPoint x="440" y="140" as="targetPoint" />
          </mxGeometry>
        </mxCell>
        <mxCell id="2LJSYE-qC05VJJCvGrUG-4" value="" style="strokeWidth=2;html=1;shape=mxgraph.flowchart.decision;whiteSpace=wrap;" parent="1" vertex="1">
          <mxGeometry x="430" y="280" width="20" height="30" as="geometry" />
        </mxCell>
        <mxCell id="2LJSYE-qC05VJJCvGrUG-5" value="" style="endArrow=open;endFill=1;endSize=12;html=1;rounded=0;exitX=0.5;exitY=1;exitDx=0;exitDy=0;" parent="1" source="2LJSYE-qC05VJJCvGrUG-1" target="2LJSYE-qC05VJJCvGrUG-4" edge="1">
          <mxGeometry width="160" relative="1" as="geometry">
            <mxPoint x="220" y="270" as="sourcePoint" />
            <mxPoint x="380" y="270" as="targetPoint" />
          </mxGeometry>
        </mxCell>
        <mxCell id="2LJSYE-qC05VJJCvGrUG-6" value="" style="endArrow=open;endFill=1;endSize=12;html=1;rounded=0;exitX=0;exitY=0.5;exitDx=0;exitDy=0;exitPerimeter=0;" parent="1" source="2LJSYE-qC05VJJCvGrUG-4" edge="1">
          <mxGeometry width="160" relative="1" as="geometry">
            <mxPoint x="220" y="270" as="sourcePoint" />
            <mxPoint x="200" y="320" as="targetPoint" />
            <Array as="points">
              <mxPoint x="200" y="295" />
            </Array>
          </mxGeometry>
        </mxCell>
        <mxCell id="2LJSYE-qC05VJJCvGrUG-9" value="Not identified" style="edgeLabel;html=1;align=center;verticalAlign=middle;resizable=0;points=[];" parent="2LJSYE-qC05VJJCvGrUG-6" vertex="1" connectable="0">
          <mxGeometry x="-0.2327" y="-3" relative="1" as="geometry">
            <mxPoint y="-12" as="offset" />
          </mxGeometry>
        </mxCell>
        <mxCell id="2LJSYE-qC05VJJCvGrUG-8" value="" style="endArrow=open;endFill=1;endSize=12;html=1;rounded=0;exitX=1;exitY=0.5;exitDx=0;exitDy=0;exitPerimeter=0;" parent="1" source="2LJSYE-qC05VJJCvGrUG-4" edge="1">
          <mxGeometry width="160" relative="1" as="geometry">
            <mxPoint x="680" y="290" as="sourcePoint" />
            <mxPoint x="680" y="320" as="targetPoint" />
            <Array as="points">
              <mxPoint x="680" y="295" />
            </Array>
          </mxGeometry>
        </mxCell>
        <mxCell id="2LJSYE-qC05VJJCvGrUG-10" value="Identified" style="edgeLabel;html=1;align=center;verticalAlign=middle;resizable=0;points=[];" parent="2LJSYE-qC05VJJCvGrUG-8" vertex="1" connectable="0">
          <mxGeometry x="-0.4264" y="-1" relative="1" as="geometry">
            <mxPoint x="47" y="-16" as="offset" />
          </mxGeometry>
        </mxCell>
        <mxCell id="2LJSYE-qC05VJJCvGrUG-11" value="Create custom sunglasses" style="rounded=1;whiteSpace=wrap;html=1;" parent="1" vertex="1">
          <mxGeometry x="620" y="320" width="120" height="60" as="geometry" />
        </mxCell>
        <mxCell id="2LJSYE-qC05VJJCvGrUG-12" value="Shows corresponding message" style="rounded=1;whiteSpace=wrap;html=1;" parent="1" vertex="1">
          <mxGeometry x="140" y="320" width="120" height="60" as="geometry" />
        </mxCell>
        <mxCell id="2LJSYE-qC05VJJCvGrUG-13" value="" style="ellipse;html=1;shape=endState;fillColor=#000000;strokeColor=#ff0000;" parent="1" vertex="1">
          <mxGeometry x="185" y="440" width="30" height="30" as="geometry" />
        </mxCell>
        <mxCell id="2LJSYE-qC05VJJCvGrUG-14" value="" style="edgeStyle=orthogonalEdgeStyle;html=1;verticalAlign=bottom;endArrow=open;endSize=8;strokeColor=#ff0000;rounded=0;" parent="1" edge="1">
          <mxGeometry relative="1" as="geometry">
            <mxPoint x="199.52" y="440" as="targetPoint" />
            <mxPoint x="199.52" y="380" as="sourcePoint" />
          </mxGeometry>
        </mxCell>
        <mxCell id="2LJSYE-qC05VJJCvGrUG-17" value="" style="strokeWidth=2;html=1;shape=mxgraph.flowchart.decision;whiteSpace=wrap;" parent="1" vertex="1">
          <mxGeometry x="670" y="780" width="20" height="30" as="geometry" />
        </mxCell>
        <mxCell id="2LJSYE-qC05VJJCvGrUG-18" value="" style="endArrow=open;endFill=1;endSize=12;html=1;rounded=0;exitX=0;exitY=0.5;exitDx=0;exitDy=0;exitPerimeter=0;entryX=1;entryY=1;entryDx=0;entryDy=0;" parent="1" source="2LJSYE-qC05VJJCvGrUG-17" target="2LJSYE-qC05VJJCvGrUG-12" edge="1">
          <mxGeometry width="160" relative="1" as="geometry">
            <mxPoint x="400" y="550" as="sourcePoint" />
            <mxPoint x="420" y="350" as="targetPoint" />
            <Array as="points">
              <mxPoint x="420" y="795" />
              <mxPoint x="420" y="440" />
              <mxPoint x="260" y="440" />
            </Array>
          </mxGeometry>
        </mxCell>
        <mxCell id="2LJSYE-qC05VJJCvGrUG-20" value="No internet connection" style="edgeLabel;html=1;align=center;verticalAlign=middle;resizable=0;points=[];" parent="2LJSYE-qC05VJJCvGrUG-18" vertex="1" connectable="0">
          <mxGeometry x="0.167" y="-1" relative="1" as="geometry">
            <mxPoint x="-61" y="-24" as="offset" />
          </mxGeometry>
        </mxCell>
        <mxCell id="2LJSYE-qC05VJJCvGrUG-19" value="" style="endArrow=open;endFill=1;endSize=12;html=1;rounded=0;entryX=0.5;entryY=0;entryDx=0;entryDy=0;entryPerimeter=0;exitX=0.5;exitY=1;exitDx=0;exitDy=0;" parent="1" source="2LJSYE-qC05VJJCvGrUG-23" target="2LJSYE-qC05VJJCvGrUG-17" edge="1">
          <mxGeometry width="160" relative="1" as="geometry">
            <mxPoint x="700" y="630" as="sourcePoint" />
            <mxPoint x="560" y="550" as="targetPoint" />
            <Array as="points" />
          </mxGeometry>
        </mxCell>
        <mxCell id="2LJSYE-qC05VJJCvGrUG-21" value="Order" style="rounded=1;whiteSpace=wrap;html=1;" parent="1" vertex="1">
          <mxGeometry x="620" y="510" width="120" height="60" as="geometry" />
        </mxCell>
        <mxCell id="2LJSYE-qC05VJJCvGrUG-22" value="" style="endArrow=open;endFill=1;endSize=12;html=1;rounded=0;exitX=0.5;exitY=1;exitDx=0;exitDy=0;entryX=0.5;entryY=0;entryDx=0;entryDy=0;entryPerimeter=0;" parent="1" source="2LJSYE-qC05VJJCvGrUG-11" target="2LJSYE-qC05VJJCvGrUG-27" edge="1">
          <mxGeometry width="160" relative="1" as="geometry">
            <mxPoint x="450" y="480" as="sourcePoint" />
            <mxPoint x="610" y="480" as="targetPoint" />
          </mxGeometry>
        </mxCell>
        <mxCell id="2LJSYE-qC05VJJCvGrUG-23" value="Pay" style="rounded=1;whiteSpace=wrap;html=1;" parent="1" vertex="1">
          <mxGeometry x="620" y="680" width="120" height="60" as="geometry" />
        </mxCell>
        <mxCell id="2LJSYE-qC05VJJCvGrUG-24" value="" style="endArrow=open;endFill=1;endSize=12;html=1;rounded=0;exitX=0.5;exitY=1;exitDx=0;exitDy=0;entryX=0.5;entryY=0;entryDx=0;entryDy=0;entryPerimeter=0;" parent="1" source="2LJSYE-qC05VJJCvGrUG-21" target="2LJSYE-qC05VJJCvGrUG-30" edge="1">
          <mxGeometry width="160" relative="1" as="geometry">
            <mxPoint x="680" y="500" as="sourcePoint" />
            <mxPoint x="750" y="590" as="targetPoint" />
            <Array as="points" />
          </mxGeometry>
        </mxCell>
        <mxCell id="2LJSYE-qC05VJJCvGrUG-25" value="" style="endArrow=open;endFill=1;endSize=12;html=1;rounded=0;entryX=1;entryY=0.5;entryDx=0;entryDy=0;exitX=0;exitY=0.5;exitDx=0;exitDy=0;exitPerimeter=0;" parent="1" source="2LJSYE-qC05VJJCvGrUG-27" target="2LJSYE-qC05VJJCvGrUG-12" edge="1">
          <mxGeometry width="160" relative="1" as="geometry">
            <mxPoint x="480" y="470" as="sourcePoint" />
            <mxPoint x="610" y="420" as="targetPoint" />
            <Array as="points">
              <mxPoint x="480" y="445" />
              <mxPoint x="480" y="350" />
            </Array>
          </mxGeometry>
        </mxCell>
        <mxCell id="2LJSYE-qC05VJJCvGrUG-26" value="No internet connection" style="edgeLabel;html=1;align=center;verticalAlign=middle;resizable=0;points=[];" parent="1" vertex="1" connectable="0">
          <mxGeometry x="480" y="445.00137931034476" as="geometry">
            <mxPoint x="24" y="95" as="offset" />
          </mxGeometry>
        </mxCell>
        <mxCell id="2LJSYE-qC05VJJCvGrUG-27" value="" style="strokeWidth=2;html=1;shape=mxgraph.flowchart.decision;whiteSpace=wrap;" parent="1" vertex="1">
          <mxGeometry x="670" y="430" width="20" height="30" as="geometry" />
        </mxCell>
        <mxCell id="2LJSYE-qC05VJJCvGrUG-28" value="" style="endArrow=open;endFill=1;endSize=12;html=1;rounded=0;exitX=0.5;exitY=1;exitDx=0;exitDy=0;entryX=0.5;entryY=0;entryDx=0;entryDy=0;" parent="1" target="2LJSYE-qC05VJJCvGrUG-21" edge="1">
          <mxGeometry width="160" relative="1" as="geometry">
            <mxPoint x="679.66" y="460" as="sourcePoint" />
            <mxPoint x="680" y="500" as="targetPoint" />
          </mxGeometry>
        </mxCell>
        <mxCell id="2LJSYE-qC05VJJCvGrUG-30" value="" style="strokeWidth=2;html=1;shape=mxgraph.flowchart.decision;whiteSpace=wrap;" parent="1" vertex="1">
          <mxGeometry x="670" y="610" width="20" height="30" as="geometry" />
        </mxCell>
        <mxCell id="2LJSYE-qC05VJJCvGrUG-31" value="" style="endArrow=open;endFill=1;endSize=12;html=1;rounded=0;entryX=0.5;entryY=0;entryDx=0;entryDy=0;exitX=0.5;exitY=1;exitDx=0;exitDy=0;exitPerimeter=0;" parent="1" source="2LJSYE-qC05VJJCvGrUG-30" target="2LJSYE-qC05VJJCvGrUG-23" edge="1">
          <mxGeometry width="160" relative="1" as="geometry">
            <mxPoint x="690" y="660" as="sourcePoint" />
            <mxPoint x="679.66" y="680" as="targetPoint" />
            <Array as="points" />
          </mxGeometry>
        </mxCell>
        <mxCell id="2LJSYE-qC05VJJCvGrUG-33" value="" style="endArrow=open;endFill=1;endSize=12;html=1;rounded=0;exitX=0;exitY=0.5;exitDx=0;exitDy=0;exitPerimeter=0;entryX=1;entryY=0.75;entryDx=0;entryDy=0;" parent="1" source="2LJSYE-qC05VJJCvGrUG-30" target="2LJSYE-qC05VJJCvGrUG-12" edge="1">
          <mxGeometry width="160" relative="1" as="geometry">
            <mxPoint x="450" y="550" as="sourcePoint" />
            <mxPoint x="610" y="550" as="targetPoint" />
            <Array as="points">
              <mxPoint x="440" y="625" />
              <mxPoint x="440" y="365" />
            </Array>
          </mxGeometry>
        </mxCell>
        <mxCell id="2LJSYE-qC05VJJCvGrUG-34" value="Order saved in db" style="rounded=1;whiteSpace=wrap;html=1;" parent="1" vertex="1">
          <mxGeometry x="620" y="860" width="120" height="60" as="geometry" />
        </mxCell>
        <mxCell id="2LJSYE-qC05VJJCvGrUG-35" value="" style="endArrow=open;endFill=1;endSize=12;html=1;rounded=0;exitX=0.5;exitY=1;exitDx=0;exitDy=0;exitPerimeter=0;entryX=0.5;entryY=0;entryDx=0;entryDy=0;" parent="1" source="2LJSYE-qC05VJJCvGrUG-17" target="2LJSYE-qC05VJJCvGrUG-34" edge="1">
          <mxGeometry width="160" relative="1" as="geometry">
            <mxPoint x="450" y="870" as="sourcePoint" />
            <mxPoint x="610" y="870" as="targetPoint" />
          </mxGeometry>
        </mxCell>
        <mxCell id="2LJSYE-qC05VJJCvGrUG-36" value="" style="endArrow=open;endFill=1;endSize=12;html=1;rounded=0;exitX=0;exitY=0.5;exitDx=0;exitDy=0;entryX=0.817;entryY=1.06;entryDx=0;entryDy=0;entryPerimeter=0;" parent="1" source="2LJSYE-qC05VJJCvGrUG-34" target="2LJSYE-qC05VJJCvGrUG-12" edge="1">
          <mxGeometry width="160" relative="1" as="geometry">
            <mxPoint x="260" y="840" as="sourcePoint" />
            <mxPoint x="240" y="610" as="targetPoint" />
            <Array as="points">
              <mxPoint x="240" y="890" />
            </Array>
          </mxGeometry>
        </mxCell>
        <mxCell id="xMFDGB4wSCGc6ArK9b0k-1" value="No internet connection" style="edgeLabel;html=1;align=center;verticalAlign=middle;resizable=0;points=[];" parent="1" vertex="1" connectable="0">
          <mxGeometry x="540" y="390.00137931034476" as="geometry" />
        </mxCell>
      </root>
    </mxGraphModel>
  </diagram>
</mxfile>
